<?xml version="1.0" encoding="UTF-8"?><svg id="a" xmlns="http://www.w3.org/2000/svg" viewBox="0 0 595.28 841.89"><defs><style>.b{stroke:#1d1d1b;stroke-miterlimit:10;}.b,.c{fill:#1d1d1b;}</style></defs><path class="c" d="M167.05,313.95h39.16l48.99,136.55c6.15,17.46,12.01,35.5,18.16,53.25h1.56c6.15-17.75,11.52-35.79,17.67-53.25l48.41-136.55h39.16v255.56h-30.23v-140.72c0-22.25,2.5-52.97,4.14-75.57h-1.56l-20.29,58.28-48.13,132.2h-21.55l-48.38-132.2-20.25-58.28h-1.56c1.64,22.6,4.14,53.32,4.14,75.57v140.72h-29.45v-255.56Z"/><rect class="c" x="261.56" y="163.53" width="32.94" height="292.27" transform="translate(587.7 31.63) rotate(90)"/><g><rect class="c" x="112.05" y="588.62" width="52.73" height="12.08"/><rect class="c" x="111.2" y="627.62" width="48.67" height="12.08" transform="translate(-498.13 769.2) rotate(-90)"/><path class="b" d="M187.61,588.86h38.36v7.17h-29.89v20.85h25.22v7.17h-25.22v24.2h30.91v7.17h-39.38v-66.56Z"/><path class="b" d="M273.18,589.77h9.56l22.51,66.56h-8.97l-11.61-37.17c-2.39-7.44-4.53-14.75-6.66-22.43h-.41c-2.06,7.72-4.2,14.99-6.59,22.43l-11.73,37.17h-8.62l22.51-66.56Zm-10.68,39.52h30.65v6.76h-30.65v-6.76Z"/><rect class="c" x="313.71" y="589.13" width="52.73" height="12.08"/><rect class="c" x="312.86" y="628.14" width="48.67" height="12.08" transform="translate(-296.99 971.38) rotate(-90)"/><path class="b" d="M390.07,590.41h20.85c13.56,0,23.29,4.87,23.29,18.73s-9.73,19.69-23.29,19.69h-12.38v28.13h-8.47v-66.56Zm19.63,31.56c10.36,0,16.06-4.2,16.06-12.82s-5.7-11.86-16.06-11.86h-11.16v24.69h11.16Zm-.45,4.55l6.64-4.38,20.31,34.83h-9.6l-17.34-30.45Z"/></g></svg>